<svg width="200" height="300" xmlns="http://www.w3.org/2000/svg">
  <!-- 背景 -->
  <rect width="100%" height="100%" fill="#f0f0f0" />

  <!-- 髪と角 -->
  <path d="M80,40 Q100,10 120,40" fill="orange" />
  <polygon points="85,35 90,10 95,35" fill="yellow" />
  <polygon points="105,35 110,10 115,35" fill="yellow" />

  <!-- 頭 -->
  <circle cx="100" cy="60" r="30" fill="red" />
  
  <!-- 顔 -->
  <circle cx="90" cy="55" r="5" fill="white" />
  <circle cx="110" cy="55" r="5" fill="white" />
  <circle cx="90" cy="55" r="2" fill="black" />
  <circle cx="110" cy="55" r="2" fill="black" />
  <path d="M90,70 Q100,80 110,70" stroke="black" fill="none" stroke-width="2"/>

  <!-- 体 -->
  <rect x="70" y="90" width="60" height="80" rx="10" ry="10" fill="red" />

  <!-- トラ柄パンツ -->
  <rect x="70" y="160" width="60" height="30" fill="yellow" />
  <path d="M70,160 l60,0 M70,170 l60,0 M70,180 l60,0" stroke="black" stroke-width="3" />

  <!-- 左腕 -->
  <rect x="40" y="90" width="20" height="60" fill="red" />
  
  <!-- 棍棒（左手に） -->
  <rect x="20" y="120" width="30" height="10" fill="#555" />
  <circle cx="22" cy="125" r="2" fill="black" />
  <circle cx="28" cy="125" r="2" fill="black" />
  <circle cx="34" cy="125" r="2" fill="black" />

  <!-- 右腕 -->
  <rect x="130" y="90" width="20" height="60" fill="red" />

  <!-- 脚 -->
  <rect x="75" y="190" width="15" height="40" fill="red" />
  <rect x="110" y="190" width="15" height="40" fill="red" />
</svg>
