<svg xmlns="http://www.w3.org/2000/svg" width="200" height="200" viewBox="0 0 200 200">
  <rect width="200" height="200" fill="#666"/>
  <g>
    <rect x="0" y="0" width="40" height="40" fill="#7a7a7a" stroke="#555" stroke-width="2"/>
    <rect x="40" y="0" width="40" height="40" fill="#808080" stroke="#555" stroke-width="2"/>
    <rect x="80" y="0" width="40" height="40" fill="#858585" stroke="#555" stroke-width="2"/>
    <rect x="120" y="0" width="40" height="40" fill="#7f7f7f" stroke="#555" stroke-width="2"/>
    <rect x="160" y="0" width="40" height="40" fill="#8a8a8a" stroke="#555" stroke-width="2"/>

    <rect x="0" y="40" width="40" height="40" fill="#808080" stroke="#555" stroke-width="2"/>
    <rect x="40" y="40" width="40" height="40" fill="#8f8f8f" stroke="#555" stroke-width="2"/>
    <rect x="80" y="40" width="40" height="40" fill="#828282" stroke="#555" stroke-width="2"/>
    <rect x="120" y="40" width="40" height="40" fill="#8c8c8c" stroke="#555" stroke-width="2"/>
    <rect x="160" y="40" width="40" height="40" fill="#858585" stroke="#555" stroke-width="2"/>

    <rect x="0" y="80" width="40" height="40" fill="#888888" stroke="#555" stroke-width="2"/>
    <rect x="40" y="80" width="40" height="40" fill="#939393" stroke="#555" stroke-width="2"/>
    <rect x="80" y="80" width="40" height="40" fill="#8b8b8b" stroke="#555" stroke-width="2"/>
    <rect x="120" y="80" width="40" height="40" fill="#949494" stroke="#555" stroke-width="2"/>
    <rect x="160" y="80" width="40" height="40" fill="#8d8d8d" stroke="#555" stroke-width="2"/>

    <rect x="0" y="120" width="40" height="40" fill="#7e7e7e" stroke="#555" stroke-width="2"/>
    <rect x="40" y="120" width="40" height="40" fill="#878787" stroke="#555" stroke-width="2"/>
    <rect x="80" y="120" width="40" height="40" fill="#808080" stroke="#555" stroke-width="2"/>
    <rect x="120" y="120" width="40" height="40" fill="#8a8a8a" stroke="#555" stroke-width="2"/>
    <rect x="160" y="120" width="40" height="40" fill="#7f7f7f" stroke="#555" stroke-width="2"/>

    <rect x="0" y="160" width="40" height="40" fill="#8a8a8a" stroke="#555" stroke-width="2"/>
    <rect x="40" y="160" width="40" height="40" fill="#929292" stroke="#555" stroke-width="2"/>
    <rect x="80" y="160" width="40" height="40" fill="#8b8b8b" stroke="#555" stroke-width="2"/>
    <rect x="120" y="160" width="40" height="40" fill="#939393" stroke="#555" stroke-width="2"/>
    <rect x="160" y="160" width="40" height="40" fill="#858585" stroke="#555" stroke-width="2"/>
  </g>
  <g stroke="#444" stroke-width="1" fill="none">
    <path d="M10 60 l15 -10 l5 20"/>
    <path d="M150 120 l20 10 l-10 15"/>
  </g>
</svg>
